<svg width="20" height="21" viewBox="0 0 20 21" fill="none" xmlns="http://www.w3.org/2000/svg">
<path d="M19.7029 4.26124C19.0071 4.56958 18.2596 4.77791 17.4737 4.87208C18.2846 4.3869 18.8912 3.6233 19.1804 2.72374C18.4186 3.17624 17.5849 3.49474 16.7154 3.66541C16.1307 3.04113 15.3563 2.62735 14.5124 2.48831C13.6684 2.34926 12.8022 2.49274 12.0481 2.89645C11.2941 3.30017 10.6944 3.94155 10.3422 4.721C9.99003 5.50045 9.90503 6.37437 10.1004 7.20708C8.55682 7.12957 7.04677 6.72837 5.66827 6.0295C4.28977 5.33063 3.07362 4.34971 2.09875 3.15041C1.76542 3.72541 1.57375 4.39208 1.57375 5.10208C1.57338 5.74124 1.73078 6.37061 2.03198 6.93435C2.33319 7.4981 2.76888 7.97878 3.30042 8.33374C2.68398 8.31413 2.08114 8.14756 1.54208 7.84791V7.89791C1.54202 8.79436 1.85211 9.66323 2.41974 10.3571C2.98736 11.0509 3.77756 11.527 4.65625 11.7046C4.0844 11.8593 3.48486 11.8821 2.90292 11.7712C3.15083 12.5426 3.63375 13.2171 4.28406 13.7003C4.93437 14.1836 5.71951 14.4514 6.52958 14.4662C5.15444 15.5458 3.45616 16.1313 1.70792 16.1287C1.39823 16.1288 1.08881 16.1107 0.78125 16.0746C2.55581 17.2156 4.62153 17.8211 6.73125 17.8187C13.8729 17.8187 17.7771 11.9037 17.7771 6.77374C17.7771 6.60708 17.7729 6.43874 17.7654 6.27208C18.5248 5.72289 19.1803 5.04282 19.7013 4.26374L19.7029 4.26124Z" fill="#112211"/>
</svg>
