<svg width="20" height="21" viewBox="0 0 20 21" fill="none" xmlns="http://www.w3.org/2000/svg">
<g clip-path="url(#clip0_128_433)">
<path d="M19.5829 5.5695C19.4696 5.16552 19.249 4.79978 18.9445 4.51116C18.6314 4.21367 18.2477 4.00086 17.8295 3.89283C16.2645 3.48033 9.99454 3.48033 9.99454 3.48033C7.38065 3.45059 4.7674 3.58139 2.16954 3.872C1.75136 3.98801 1.36834 4.20557 1.05454 4.50533C0.746204 4.802 0.522871 5.16783 0.406204 5.56866C0.125949 7.07845 -0.0102189 8.61145 -0.000462243 10.147C-0.0104622 11.6812 0.125371 13.2137 0.406204 14.7253C0.520371 15.1245 0.742871 15.4887 1.05204 15.7828C1.3612 16.077 1.7462 16.2895 2.16954 16.402C3.75537 16.8137 9.99454 16.8137 9.99454 16.8137C12.6118 16.8434 15.2283 16.7126 17.8295 16.422C18.2477 16.314 18.6314 16.1012 18.9445 15.8037C19.2489 15.5151 19.4693 15.1493 19.582 14.7453C19.8696 13.2361 20.0094 11.7025 19.9995 10.1662C20.0212 8.62333 19.8815 7.08247 19.5829 5.56866V5.5695ZM8.0012 13.0003V7.2945L13.2179 10.1478L8.0012 13.0003Z" fill="#112211"/>
</g>
<defs>
<clipPath id="clip0_128_433">
<rect width="20" height="20" fill="white" transform="translate(0 0.147095)"/>
</clipPath>
</defs>
</svg>
