<svg width="377" height="24" viewBox="0 0 377 24" fill="none" xmlns="http://www.w3.org/2000/svg">
<path d="M18.4687 22.5C18.3109 22.5006 18.1569 22.4514 18.0286 22.3594L12 17.9887L5.9714 22.3594C5.84261 22.4528 5.68744 22.5028 5.52833 22.5022C5.36922 22.5017 5.21442 22.4505 5.08631 22.3561C4.95819 22.2618 4.86341 22.1291 4.81564 21.9774C4.76788 21.8256 4.76963 21.6626 4.82062 21.5119L7.17187 14.5476L1.07812 10.3687C0.946128 10.2783 0.846506 10.1481 0.793812 9.99699C0.741119 9.84593 0.738115 9.68197 0.78524 9.52907C0.832366 9.37618 0.92715 9.24236 1.05574 9.14717C1.18434 9.05198 1.34001 9.0004 1.5 8.99998H9.01781L11.2866 2.01795C11.3354 1.86721 11.4308 1.73583 11.559 1.64264C11.6871 1.54946 11.8415 1.49927 12 1.49927C12.1585 1.49927 12.3129 1.54946 12.441 1.64264C12.5692 1.73583 12.6646 1.86721 12.7134 2.01795L14.9822 9.00233H22.5C22.6602 9.00225 22.8162 9.05346 22.9452 9.14847C23.0742 9.24348 23.1693 9.37729 23.2167 9.5303C23.2642 9.68331 23.2614 9.84749 23.2087 9.99878C23.1561 10.1501 23.0564 10.2805 22.9242 10.3711L16.8281 14.5476L19.178 21.51C19.216 21.6227 19.2267 21.7429 19.2092 21.8605C19.1917 21.9782 19.1464 22.09 19.0771 22.1868C19.0078 22.2835 18.9165 22.3623 18.8107 22.4168C18.7049 22.4713 18.5877 22.4998 18.4687 22.5Z" fill="#FFC107"/>
<path d="M54.4687 22.5C54.3109 22.5006 54.1569 22.4514 54.0286 22.3594L48 17.9887L41.9714 22.3594C41.8426 22.4528 41.6874 22.5028 41.5283 22.5022C41.3692 22.5017 41.2144 22.4505 41.0863 22.3561C40.9582 22.2618 40.8634 22.1291 40.8156 21.9774C40.7679 21.8256 40.7696 21.6626 40.8206 21.5119L43.1719 14.5476L37.0781 10.3687C36.9461 10.2783 36.8465 10.1481 36.7938 9.99699C36.7411 9.84593 36.7381 9.68197 36.7852 9.52907C36.8324 9.37618 36.9272 9.24236 37.0557 9.14717C37.1843 9.05198 37.34 9.0004 37.5 8.99998H45.0178L47.2866 2.01795C47.3354 1.86721 47.4308 1.73583 47.559 1.64264C47.6871 1.54946 47.8415 1.49927 48 1.49927C48.1585 1.49927 48.3129 1.54946 48.441 1.64264C48.5692 1.73583 48.6646 1.86721 48.7134 2.01795L50.9822 9.00233H58.5C58.6602 9.00225 58.8162 9.05346 58.9452 9.14847C59.0742 9.24348 59.1693 9.37729 59.2167 9.5303C59.2642 9.68331 59.2614 9.84749 59.2087 9.99878C59.1561 10.1501 59.0564 10.2805 58.9242 10.3711L52.8281 14.5476L55.178 21.51C55.216 21.6227 55.2267 21.7429 55.2092 21.8605C55.1917 21.9782 55.1464 22.09 55.0771 22.1868C55.0078 22.2835 54.9165 22.3623 54.8107 22.4168C54.7049 22.4713 54.5877 22.4998 54.4687 22.5Z" fill="#FFC107"/>
<path d="M90.4688 22.5C90.3109 22.5006 90.1569 22.4514 90.0286 22.3594L84 17.9887L77.9714 22.3594C77.8426 22.4528 77.6874 22.5028 77.5283 22.5022C77.3692 22.5017 77.2144 22.4505 77.0863 22.3561C76.9582 22.2618 76.8634 22.1291 76.8156 21.9774C76.7679 21.8256 76.7696 21.6626 76.8206 21.5119L79.1719 14.5476L73.0781 10.3687C72.9461 10.2783 72.8465 10.1481 72.7938 9.99699C72.7411 9.84593 72.7381 9.68197 72.7852 9.52907C72.8324 9.37618 72.9272 9.24236 73.0557 9.14717C73.1843 9.05198 73.34 9.0004 73.5 8.99998H81.0178L83.2866 2.01795C83.3354 1.86721 83.4308 1.73583 83.559 1.64264C83.6871 1.54946 83.8415 1.49927 84 1.49927C84.1585 1.49927 84.3129 1.54946 84.441 1.64264C84.5692 1.73583 84.6646 1.86721 84.7134 2.01795L86.9822 9.00233H94.5C94.6602 9.00225 94.8162 9.05346 94.9452 9.14847C95.0742 9.24348 95.1693 9.37729 95.2168 9.5303C95.2642 9.68331 95.2614 9.84749 95.2087 9.99878C95.1561 10.1501 95.0564 10.2805 94.9242 10.3711L88.8281 14.5476L91.178 21.51C91.216 21.6227 91.2268 21.7429 91.2092 21.8605C91.1917 21.9782 91.1464 22.09 91.0771 22.1868C91.0078 22.2835 90.9165 22.3623 90.8107 22.4168C90.7049 22.4713 90.5877 22.4998 90.4688 22.5Z" fill="#FFC107"/>
<path d="M126.469 22.5C126.311 22.5006 126.157 22.4514 126.029 22.3594L120 17.9887L113.971 22.3594C113.843 22.4528 113.687 22.5028 113.528 22.5022C113.369 22.5017 113.214 22.4505 113.086 22.3561C112.958 22.2618 112.863 22.1291 112.816 21.9774C112.768 21.8256 112.77 21.6626 112.821 21.5119L115.172 14.5476L109.078 10.3687C108.946 10.2783 108.847 10.1481 108.794 9.99699C108.741 9.84593 108.738 9.68197 108.785 9.52907C108.832 9.37618 108.927 9.24236 109.056 9.14717C109.184 9.05198 109.34 9.0004 109.5 8.99998H117.018L119.287 2.01795C119.335 1.86721 119.431 1.73583 119.559 1.64264C119.687 1.54946 119.842 1.49927 120 1.49927C120.158 1.49927 120.313 1.54946 120.441 1.64264C120.569 1.73583 120.665 1.86721 120.713 2.01795L122.982 9.00233H130.5C130.66 9.00225 130.816 9.05346 130.945 9.14847C131.074 9.24348 131.169 9.37729 131.217 9.5303C131.264 9.68331 131.261 9.84749 131.209 9.99878C131.156 10.1501 131.056 10.2805 130.924 10.3711L124.828 14.5476L127.178 21.51C127.216 21.6227 127.227 21.7429 127.209 21.8605C127.192 21.9782 127.146 22.09 127.077 22.1868C127.008 22.2835 126.917 22.3623 126.811 22.4168C126.705 22.4713 126.588 22.4998 126.469 22.5Z" fill="#FFC107"/>
<path d="M162.469 22.5C162.311 22.5006 162.157 22.4514 162.029 22.3594L156 17.9887L149.971 22.3594C149.843 22.4528 149.687 22.5028 149.528 22.5022C149.369 22.5017 149.214 22.4505 149.086 22.3561C148.958 22.2618 148.863 22.1291 148.816 21.9774C148.768 21.8256 148.77 21.6626 148.821 21.5119L151.172 14.5476L145.078 10.3687C144.946 10.2783 144.847 10.1481 144.794 9.99699C144.741 9.84593 144.738 9.68197 144.785 9.52907C144.832 9.37618 144.927 9.24236 145.056 9.14717C145.184 9.05198 145.34 9.0004 145.5 8.99998H153.018L155.287 2.01795C155.335 1.86721 155.431 1.73583 155.559 1.64264C155.687 1.54946 155.842 1.49927 156 1.49927C156.158 1.49927 156.313 1.54946 156.441 1.64264C156.569 1.73583 156.665 1.86721 156.713 2.01795L158.982 9.00233H166.5C166.66 9.00225 166.816 9.05346 166.945 9.14847C167.074 9.24348 167.169 9.37729 167.217 9.5303C167.264 9.68331 167.261 9.84749 167.209 9.99878C167.156 10.1501 167.056 10.2805 166.924 10.3711L160.828 14.5476L163.178 21.51C163.216 21.6227 163.227 21.7429 163.209 21.8605C163.192 21.9782 163.146 22.09 163.077 22.1868C163.008 22.2835 162.917 22.3623 162.811 22.4168C162.705 22.4713 162.588 22.4998 162.469 22.5Z" fill="#FFC107"/>
</svg>
