<svg width="120" height="40" viewBox="0 0 120 40" fill="none" xmlns="http://www.w3.org/2000/svg">
<g clip-path="url(#clip0_128_415)">
<path d="M16.0157 6.06421L19.5155 8.70821L17.3775 11.4284C18.8536 13.0987 19.3976 15.0046 19.3976 17.1046C19.3976 19.4748 18.5037 22.8188 15.3539 24.2569C18.5418 25.8509 19.318 28.1449 19.318 30.5948C19.318 35.8828 15.2742 39.1471 9.71615 39.1471C4.15812 39.1471 0 35.765 0 30.5948H4.70215C4.70215 33.0829 6.99604 34.715 9.71615 34.715C12.4363 34.715 14.5742 33.2388 14.5742 30.5948C14.5742 27.9508 12.0863 26.7449 9.71615 26.7449C3.73192 26.7449 0 23.0925 0 17.1046C0 11.1166 4.35217 7.38448 9.71961 7.38448C11.2373 7.38448 12.7897 7.57853 14.1134 8.47257L16.0157 6.06421ZM4.70215 17.1046C4.70215 20.4485 6.95793 22.4307 9.71615 22.4307C12.4363 22.4307 14.692 20.4104 14.692 17.1046C14.692 13.7987 12.4397 11.7022 9.71961 11.7022C6.95793 11.7022 4.70215 13.7606 4.70215 17.1046Z" fill="#112211"/>
<path d="M54.9877 0V27.1746H50.2856V0H54.9877Z" fill="#112211"/>
<path d="M76.1179 17.6105C76.1179 23.1307 72.3479 27.6008 66.128 27.6008C59.9082 27.6008 56.1763 23.1307 56.1763 17.6105C56.1763 12.1284 59.9844 7.62012 66.0899 7.62012C72.1954 7.62012 76.1179 12.1284 76.1179 17.6105ZM60.9165 17.6105C60.9165 20.5248 62.6664 23.2485 66.1246 23.2485C69.5828 23.2485 71.3326 20.5282 71.3326 17.6105C71.3326 14.7343 69.3125 11.9344 66.1246 11.9344C62.7045 11.9344 60.9165 14.7343 60.9165 17.6105Z" fill="#112211"/>
<path d="M82.0467 0V10.6141C83.1729 8.63198 86.3226 7.54389 88.3428 7.54389C93.9389 7.54389 98.1005 10.9641 98.1005 17.5724C98.1005 23.8688 93.8627 27.6009 88.2284 27.6009C85.8964 27.6009 83.5263 26.8246 82.0467 24.5306L81.7348 27.1746H77.303V0H82.0467ZM82.3551 17.5724C82.3551 21.0307 84.9193 23.2104 87.9131 23.2104C90.9451 23.2104 93.3568 20.9163 93.3568 17.5724C93.3568 14.114 90.9451 11.976 87.9131 11.976C84.9227 11.9725 82.3551 14.2284 82.3551 17.5724Z" fill="#112211"/>
<path d="M105.152 20.9129C106.254 23.0336 108.777 23.9381 111.919 22.7945C113.562 22.195 115.492 20.7916 116.129 19.3604L120.003 21.1347C118.822 23.7994 116.064 25.8786 113.323 26.8766C107.113 29.136 102.026 26.6444 99.9266 20.8713C97.9307 15.3927 100.221 10.0908 106.067 7.96318C112.093 5.76966 117.214 8.12604 119.217 15.7947L105.152 20.9129ZM113.6 13.6601C112.456 11.4284 110.204 10.926 107.647 11.8547C105.235 12.7314 103.69 14.62 103.884 17.1946L113.6 13.6601Z" fill="#112211"/>
<path fill-rule="evenodd" clip-rule="evenodd" d="M43.2386 13.0379C41.7013 9.83054 38.4965 7.62012 34.2213 7.62012C28.1158 7.62012 24.3077 12.1284 24.3077 17.6105C24.3077 21.1103 25.8078 24.1881 28.491 25.9722C28.6439 25.8578 28.736 25.7835 28.736 25.7835C30.0744 24.9103 31.38 23.991 32.6506 23.0277C30.2568 22.3233 29.0479 20.0327 29.0479 17.6105C29.0479 14.7343 30.8394 11.9344 34.256 11.9344C37.2648 11.9344 39.2334 14.4285 39.4451 17.1269C40.7639 15.818 42.0296 14.454 43.2386 13.0379ZM33.7754 27.5917C37.5615 24.9081 41.0622 21.8426 44.2201 18.4459C43.8587 23.5747 40.1623 27.6008 34.2595 27.6008C34.0964 27.6008 33.935 27.5978 33.7754 27.5917Z" fill="white"/>
<path d="M47.1046 4.93451C42.2604 3.15336 38.778 6.98594 38.778 6.98594L42.0802 8.9057C43.3172 8.19532 43.8682 8.88491 44.0103 9.26262C44.1108 9.52945 43.9756 9.82053 43.8682 9.97993L43.0643 10.9953C38.726 16.2278 33.6254 20.7742 27.9322 24.489C27.9322 24.489 26.2135 25.8751 25.2987 25.8959C24.5295 25.9132 24.1864 25.2652 24.8344 24.3365L23.2404 20.7396C23.2404 20.7396 19.0927 23.4564 19.8966 28.2315C20.2362 30.2483 22.1316 31.6829 24.1448 31.319C25.174 31.1354 26.4457 30.6329 28.0015 29.6037L30.8637 27.7325C36.5568 24.0108 41.6609 19.4505 45.9958 14.211L46.9799 13.0224C48.4629 11.3349 49.1282 9.94528 49.3535 8.84679C49.7 7.16614 48.7055 5.5236 47.1046 4.93451Z" fill="white"/>
</g>
<defs>
<clipPath id="clip0_128_415">
<rect width="120" height="39.1471" fill="white"/>
</clipPath>
</defs>
</svg>
