<svg width="16" height="16" viewBox="0 0 16 16" fill="none" xmlns="http://www.w3.org/2000/svg">
<path d="M13.9925 1.07156L13.9925 1.07158L1.49156 5.80314L1.48327 5.80628V5.8054C1.34617 5.85951 1.22872 5.95406 1.14657 6.07655C1.06324 6.2008 1.0203 6.34774 1.02362 6.49731C1.02693 6.64688 1.07633 6.79178 1.16507 6.91222C1.25378 7.03261 1.37747 7.12269 1.51927 7.17018C1.51933 7.1702 1.51939 7.17022 1.51945 7.17024L1.53191 7.17419L1.53408 7.17488L1.53403 7.17498L5.82347 9.00666C5.90288 9.03054 5.98716 9.03328 6.06797 9.01461C6.14919 8.99585 6.22406 8.95611 6.28512 8.89936L13.1708 2.4834C13.1709 2.4833 13.171 2.4832 13.1711 2.4831C13.1937 2.46054 13.2205 2.44264 13.25 2.43042C13.2797 2.41813 13.3115 2.41181 13.3436 2.41181C13.3757 2.41181 13.4075 2.41813 13.4371 2.43042C13.4668 2.4427 13.4937 2.4607 13.5164 2.4834C13.5391 2.50609 13.5571 2.53304 13.5694 2.56269C13.5817 2.59234 13.588 2.62412 13.588 2.65622C13.588 2.68832 13.5817 2.7201 13.5694 2.74975C13.5572 2.77927 13.5393 2.80611 13.5167 2.82875C13.5166 2.82885 13.5165 2.82894 13.5164 2.82904L7.10012 9.71155L13.9925 1.07156ZM13.9925 1.07156C14.1235 1.02177 14.266 1.01089 14.4029 1.04021C14.5399 1.06953 14.6654 1.13781 14.7645 1.23682M13.9925 1.07156L14.7645 1.23682M14.7645 1.23682C14.8636 1.33629 14.9317 1.46234 14.9607 1.59971C14.9896 1.73709 14.9781 1.87991 14.9276 2.01091L14.9276 2.01105L10.1968 14.5081L14.7645 1.23682ZM9.46858 15H9.49983C9.65427 15.0009 9.80542 14.9552 9.9336 14.8691C10.0618 14.7829 10.1611 14.6602 10.2186 14.5168L10.1967 14.5085L10.1967 14.5083C10.141 14.6472 10.0447 14.7661 9.92052 14.8496C9.79624 14.9332 9.64971 14.9774 9.49996 14.9765H9.49983H9.4691M9.46858 15L9.46963 14.9766C9.46945 14.9765 9.46928 14.9765 9.4691 14.9765M9.46858 15V14.9765H9.4691M9.46858 15C9.16264 14.9862 8.90952 14.7818 8.80952 14.4922C8.80733 14.4862 8.80545 14.4806 8.80358 14.4743L6.97077 10.1812M9.4691 14.9765C9.17379 14.963 8.92874 14.7657 8.83168 14.4845L8.83151 14.4841C8.82949 14.4786 8.82777 14.4734 8.82603 14.4676L8.82617 14.4676L8.82513 14.4651L6.99283 10.1732M6.99283 10.1732C6.99295 10.1736 6.99307 10.174 6.99319 10.1744L6.97077 10.1812M6.99283 10.1732C6.96895 10.0938 6.9662 10.0095 6.98487 9.92871C7.00363 9.8475 7.04336 9.77263 7.1001 9.71158L6.96204 9.92343C6.94235 10.0086 6.94536 10.0975 6.97077 10.1812M6.99283 10.1732L6.99232 10.172L6.97077 10.1812" fill="black" stroke="#112211" stroke-width="0.046875"/>
</svg>
